# AST/ASF file generated using VICON BodyLanguage
# -----------------------------------------------
:version 1.10
:name VICON
:units
  mass 1.0
  length 0.45
  angle deg
:documentation
   .ast/.asf automatically generated from VICON data using
   VICON BodyBuilder and BodyLanguage model FoxedUp or BRILLIANT.MOD
:root
   order TX TY TZ RX RY RZ
   axis XYZ
   position 0 0 0  
   orientation 0 0 0 
:bonedata
  begin
     id 1 
     name lhipjoint
     direction 0.78388 -0.462562 0.414208 
     length 3.01181 
     axis 0 0 0  XYZ
  end
  begin
     id 2 
     name lfemur
     direction 0.34202 -0.939693 0  
     length 6.04673  
     axis 0 0 20  XYZ
    dof rx ry rz
    limits (-160.0 20.0)
           (-70.0 70.0)
           (-60.0 70.0)
  end
  begin
     id 3 
     name ltibia
     direction 0.34202 -0.939693 0   
     length 7.211   
     axis 0 0 20   XYZ
    dof rx
    limits (-10.0 170.0)
  end
  begin
     id 4 
     name lfoot
     direction 0.121887 -0.334882 0.934344   
     length 2.13567   
     axis -90 7.62852e-016 20   XYZ
    dof rx rz
    limits (-45.0 90.0)
           (-70.0 20.0)
  end
  begin
     id 5 
     name ltoes
     direction 1.53555e-011 -4.2179e-011 1   
     length 1.05957   
     axis -90 7.62852e-016 20   XYZ
    dof rx
    limits (-90.0 20.0)
  end
  begin
     id 6 
     name rhipjoint
     direction -0.769387 -0.475875 0.426129   
     length 2.92756  
     axis 0 0 0  XYZ 
  end
  begin
     id 7 
     name rfemur
     direction -0.34202 -0.939693 0   
     length 6.35468   
     axis 0 0 -20   XYZ
    dof rx ry rz
    limits (-160.0 20.0)
           (-70.0 70.0)
           (-70.0 60.0)
  end
  begin
     id 8 
     name rtibia
     direction -0.34202 -0.939693 0   
     length 7.37886   
     axis 0 0 -20   XYZ
    dof rx
    limits (-10.0 170.0)
 end
 begin
     id 9 
     name rfoot
     direction -0.101763 -0.279592 0.954711   
     length 2.21478  
     axis -90 -7.62852e-016 -20   XYZ
    dof rx rz
    limits (-45.0 90.0)
           (-20.0 70.0)
  end
  begin
     id 10 
     name rtoes
     direction -1.53494e-011 -4.21851e-011 1   
     length 1.10506   
     axis -90 -7.62852e-016 -20   XYZ
    dof rx
    limits (-90.0 20.0)
  end
  begin
     id 11 
     name lowerback
     direction 0.00747405 0.999267 0.0375481   
     length 2.13259   
     axis 0 0 0   XYZ
    dof rx ry rz
    limits (-20.0 45.0)
           (-30.0 30.0)
           (-30.0 30.0)
  end
  begin
     id 12 
     name upperback
     direction 0.00661626 0.996177 0.0871029   
     length 2.10528   
     axis 0 0 0   XYZ
    dof rx ry rz
    limits (-20.0 45.0)
           (-30.0 30.0)
           (-30.0 30.0)
  end
  begin
     id 13 
     name thorax
     direction 0.00320659 0.997679 0.0680167   
     length 2.11338   
     axis 0 0 0   XYZ
    dof rx ry rz
    limits (-20.0 45.0)
           (-30.0 30.0)
           (-30.0 30.0)
  end
  begin
     id 14 
     name lowerneck
     direction 0.0374841 0.973033 0.227602   
     length 1.42765   
     axis 0 0 0   XYZ
    dof rx ry rz
    limits (-20.0 45.0)
           (-30.0 30.0)
           (-30.0 30.0)
  end
  begin
     id 15 
     name upperneck
     direction 0.00481585 0.989155 -0.146795   
     length 1.47593   
     axis 0 0 0   XYZ
    dof rx ry rz
    limits (-20.0 45.0)
           (-30.0 30.0)
           (-30.0 30.0)
  end
  begin
     id 16
     name head
     direction -0.00292522 0.997206 -0.0746423  
     length 1.48116  
     axis 0 0 0   XYZ
    dof rx ry rz
    limits (-20.0 45.0)
           (-30.0 30.0)
           (-30.0 30.0)
  end
  begin
     id 17 
     name lclavicle
     direction 0.951444 0.305606 0.0368784  
     length 3.01855  
     axis 0 0 0   XYZ
    dof ry rz
    limits (-20.0 10.0)
           (0.0 20.0)
  end
  begin
     id 18 
     name lhumerus
     direction 1 -4.48977e-011 2.61664e-027   
     length 5.52731   
     axis 180 -30 -90   XYZ
    dof rx ry rz
    limits (-60.0 90.0)
           (-90.0 90.0)
           (-90.0 90.0)
  end
  begin
     id 19
     name lradius
     direction 1 -4.48944e-011 8.22157e-027   
     length 3.11059   
     axis 180 -30 -90   XYZ
    dof rx
    limits (-10.0 170.0)
  end
  begin
     id 20
     name lwrist
     direction 1 -4.48976e-011 1.5779e-026   
     length 1.5553   
     axis -1.15221e-014 90 90   XYZ
    dof ry
    limits (-180.0 0.0)
 end
  begin
     id 21 
     name lhand
     direction 1 -4.49025e-011 3.1558e-026   
     length 0.419626   
     axis -2.01367e-014 90 90   XYZ
    dof rx rz
    limits (-90.0 90.0)
           (-45.0 45.0)
  end
  begin
     id 22 
     name lfingers
     direction 1 -4.4904e-011 6.31161e-026   
     length 0.338313   
     axis -4.02734e-014 90 90   XYZ
    dof rx
    limits (0.0 90.0)
  end
  begin
     id 23
     name lthumb
     direction 0.707107 -6.35004e-011 0.707107   
     length 0.485752   
     axis -90 45 2.85299e-015   XYZ
    dof rx rz
    limits (-45.0 45.0)
           (-45.0 45.0)
  end
  begin
     id 24 
     name rclavicle
     direction -0.968876 0.223791 0.105816   
     length 3.04177  
     axis 0 0 0   XYZ 
    dof ry rz
    limits (-10.0 20.0)
           (-20.0 0.0)
  end
  begin
     id 25 
     name rhumerus
     direction -1 -4.48962e-011 -1.01384e-027  
     length 5.25396   
     axis 180 30 90   XYZ
    dof rx ry rz
    limits (-90.0 60.0)
           (-90.0 90.0)
           (-90.0 90.0)
  end
  begin
     id 26 
     name rradius
     direction -1 -4.48955e-011 8.88542e-027   
     length 3.10567   
     axis 180 30 90   XYZ
    dof rx
    limits (-10.0 170.0)
  end
  begin
     id 27 
     name rwrist
     direction -1 -4.48994e-011 1.5779e-026   
     length 1.55283   
     axis -1.15221e-014 -90 -90   XYZ
    dof ry
    limits (-180.0 0.0)
  end
  begin
     id 28
     name rhand
     direction -1 -4.48891e-011 3.1558e-026   
     length 0.498676   
     axis -2.01367e-014 -90 -90   XYZ
    dof rx rz
    limits (-90.0 90.0)
           (-45.0 45.0)
  end
  begin
     id 29
     name rfingers
     direction -1 -4.48972e-011 6.31161e-026   
     length 0.402045   
     axis -4.02734e-014 -90 -90   XYZ
    dof rx
    limits (0.0 90.0)
  end
  begin
     id 30
     name rthumb
     direction -0.707107 -6.34849e-011 0.707107   
     length 0.577259   
     axis -90 -45 -2.85299e-015   XYZ
    dof rx rz
    limits (-45.0 45.0)
           (-45.0 45.0)
  end
:hierarchy
  begin
    root lhipjoint rhipjoint lowerback
    lhipjoint lfemur
    lfemur ltibia
    ltibia lfoot
    lfoot ltoes
    rhipjoint rfemur
    rfemur rtibia
    rtibia rfoot
    rfoot rtoes
    lowerback upperback
    upperback thorax
    thorax lowerneck lclavicle rclavicle
    lowerneck upperneck
    upperneck head
    lclavicle lhumerus
    lhumerus lradius
    lradius lwrist
    lwrist lhand lthumb
    lhand lfingers
    rclavicle rhumerus
    rhumerus rradius
    rradius rwrist
    rwrist rhand rthumb
    rhand rfingers
  end

#!OML:ASF H:\Pregnant\Project 1\Capture day 1\Session 1\femalepreg.ASF
:FULLY-SPECIFIED
:DEGREES
171
root 4.47516 15.7628 16.8062 139.34 -80.4352 -115.22
lowerback -10.3754 -3.39232 -9.49788
upperback -6.93382 -4.08486 1.18123
thorax -0.803685 -1.89667 6.16693
lowerneck -18.7996 -1.00589 1.1874
upperneck 26.0745 -4.929 8.4294
head 11.9281 -1.22763 2.12477
rclavicle 8.44835e-015 5.24792e-014
rhumerus -45.6464 -9.32576 -70.9301
rradius 24.8564
rwrist -0.829345
rhand -10.7091 -17.3773
rfingers 7.12502
rthumb 15.3007 -46.7913
lclavicle 8.44835e-015 5.24792e-014
lhumerus -25.2064 -6.08806 78.5032
lradius 37.2474
lwrist 41.395
lhand -26.1184 -5.84504
lfingers 7.12502
lthumb 0.431438 24.1343
rfemur -51.577 15.9013 23.2849
rtibia 52.4084
rfoot -11.4912 -11.4529
rtoes -5.19994
lfemur -43.4327 -9.7788 -8.74929
ltibia 35.7733
lfoot -13.7968 6.74175
ltoes -14.1618
172
root 4.48167 15.7751 16.7764 139.581 -80.2297 -115.517
lowerback -10.3345 -3.31127 -9.53246
upperback -6.84378 -3.96759 1.14685
thorax -0.750804 -1.83999 6.16309
lowerneck -18.5769 -1.11741 1.05967
upperneck 25.8387 -5.05552 8.57755
head 11.8053 -1.292 2.1773
rclavicle -2.54444e-014 1.90833e-014
rhumerus -45.6495 -8.91225 -71.3589
rradius 25.3009
rwrist -1.41522
rhand -10.9607 -17.3403
rfingers 7.12502
rthumb 15.0583 -46.7726
lclavicle -2.54444e-014 1.90833e-014
lhumerus -25.1574 -5.89515 78.4516
lradius 37.175
lwrist 41.7894
lhand -26.128 -5.74805
lfingers 7.12502
lthumb 0.4221 24.2313
rfemur -51.7305 15.8949 23.0172
rtibia 52.7837
rfoot -11.2651 -11.7843
rtoes -5.06388
lfemur -43.2321 -9.7138 -8.4537
ltibia 35.6193
lfoot -13.7436 6.91277
ltoes -14.1603
173
root 4.48754 15.7872 16.746 139.872 -80.0338 -115.866
lowerback -10.3066 -3.21722 -9.55654
upperback -6.75096 -3.83236 1.09518
thorax -0.69263 -1.77531 6.13636
lowerneck -18.3473 -1.22838 0.967192
upperneck 25.5899 -5.18349 8.70367
head 11.6758 -1.35704 2.21523
rclavicle 6.91771e-014 4.92986e-014
rhumerus -45.6625 -8.52576 -71.7982
rradius 25.7818
rwrist -2.01594
rhand -11.1659 -17.2899
rfingers 7.12502
rthumb 14.8607 -46.737
lclavicle 6.91771e-014 4.92986e-014
lhumerus -25.0999 -5.8017 78.4043
lradius 37.049
lwrist 42.2051
lhand -26.1011 -5.61642
lfingers 7.12502
lthumb 0.448118 24.3629
rfemur -51.8617 15.8831 22.7191
rtibia 53.119
rfoot -11.0418 -12.0458
rtoes -4.92232
lfemur -43.0177 -9.63484 -8.18128
ltibia 35.4522
lfoot -13.6913 7.06751
ltoes -14.1553
174
root 4.49284 15.7991 16.7148 140.227 -79.8527 -116.281
lowerback -10.2869 -3.12605 -9.59622
upperback -6.65511 -3.69853 1.05045
thorax -0.625405 -1.71131 6.1251
lowerneck -18.1265 -1.33289 0.859407
upperneck 25.3397 -5.29444 8.82351
head 11.5475 -1.41642 2.25628
rclavicle 3.06128e-014 0
rhumerus -45.6571 -8.11556 -72.236
rradius 26.2905
rwrist -2.62267
rhand -11.3153 -17.2238
rfingers 7.12502
rthumb 14.7167 -46.6814
lclavicle 3.06128e-014 0
lhumerus -25.0359 -5.72994 78.3748
lradius 36.8614
lwrist 42.6035
lhand -26.0582 -5.48179
lfingers 7.12502
lthumb 0.489504 24.4974
rfemur -51.9723 15.8647 22.3872
rtibia 53.4184
rfoot -10.815 -12.2421
rtoes -4.81062
lfemur -42.7905 -9.54897 -7.93477
ltibia 35.2727
lfoot -13.6363 7.20979
ltoes -14.168
175
root 4.49773 15.8105 16.6826 140.606 -79.6884 -116.725
lowerback -10.2739 -3.03229 -9.64169
upperback -6.55641 -3.55978 1.00223
thorax -0.552439 -1.64515 6.11363
lowerneck -17.9026 -1.43807 0.753173
upperneck 25.0839 -5.4026 8.93364
head 11.4168 -1.47591 2.29398
rclavicle -6.95746e-015 -2.38542e-014
rhumerus -45.6439 -7.69674 -72.6756
rradius 26.8272
rwrist -3.23011
rhand -11.3531 -17.1467
rfingers 7.12502
rthumb 14.6803 -46.607
lclavicle -6.95746e-015 -2.38542e-014
lhumerus -24.959 -5.69025 78.3529
lradius 36.6052
lwrist 42.9452
lhand -25.9775 -5.32389
lfingers 7.12502
lthumb 0.567523 24.6551
rfemur -52.0596 15.8367 22.0268
rtibia 53.6846
rfoot -10.5897 -12.3817
rtoes -4.67784
lfemur -42.5513 -9.44417 -7.71769
ltibia 35.0815
lfoot -13.5767 7.32406
ltoes -14.2471
176
root 4.50234 15.8214 16.6491 141.011 -79.5422 -117.197
lowerback -10.2675 -2.94022 -9.69967
upperback -6.45628 -3.4214 0.955306
thorax -0.473806 -1.57925 6.11027
lowerneck -17.6775 -1.54224 0.635419
upperneck 24.8222 -5.5045 9.0437
head 11.2845 -1.53393 2.33467
rclavicle 1.92821e-014 2.38542e-014
rhumerus -45.6177 -7.26776 -73.1122
rradius 27.3826
rwrist -3.82053
rhand -11.2934 -17.0469
rfingers 7.12502
rthumb 14.7378 -46.503
lclavicle 1.92821e-014 2.38542e-014
lhumerus -24.8735 -5.66778 78.3359
lradius 36.2864
lwrist 43.2152
lhand -25.8578 -5.15947
lfingers 7.12502
lthumb 0.683078 24.8192
rfemur -52.1266 15.7965 21.6396
rtibia 53.9192
rfoot -10.3563 -12.4726
rtoes -4.56584
lfemur -42.3056 -9.32016 -7.52923
ltibia 34.8812
lfoot -13.514 7.4064
ltoes -14.3591
177
root 4.50656 15.8319 16.6143 141.473 -79.4112 -117.723
lowerback -10.2766 -2.84602 -9.7656
upperback -6.35663 -3.27805 0.906627
thorax -0.388092 -1.5112 6.1096
lowerneck -17.454 -1.64827 0.501595
upperneck 24.5597 -5.60452 9.15611
head 11.1535 -1.59236 2.37942
rclavicle 2.06736e-014 2.22639e-014
rhumerus -45.5831 -6.83693 -73.5425
rradius 27.9568
rwrist -4.37749
rhand -11.1522 -16.9309
rfingers 7.12502
rthumb 14.8738 -46.377
lclavicle 2.06736e-014 2.22639e-014
lhumerus -24.7774 -5.64852 78.322
lradius 35.9016
lwrist 43.3737
lhand -25.7258 -5.00563
lfingers 7.12502
lthumb 0.810581 24.9726
rfemur -52.1784 15.7453 21.2273
rtibia 54.1228
rfoot -10.1092 -12.5219
rtoes -4.50823
lfemur -42.0577 -9.18102 -7.36477
ltibia 34.6743
lfoot -13.45 7.46703
ltoes -14.5057
